<svg width="720" height="213" viewBox="0 0 720 213" fill="none" xmlns="http://www.w3.org/2000/svg">
<path d="M615.239 127.993H646.247L644.519 137.497H600.551L602.087 128.953L641.543 80.2808H610.631L612.359 70.7768H656.327L654.791 79.3208L615.239 127.993Z" fill="#FF8102"/>
<path d="M263.503 138.169C258.831 138.169 254.607 137.369 250.831 135.769C247.119 134.169 244.175 131.865 241.999 128.857C239.823 125.849 238.703 122.297 238.639 118.201H253.039C253.231 120.953 254.191 123.129 255.919 124.729C257.711 126.329 260.143 127.129 263.215 127.129C266.351 127.129 268.815 126.393 270.607 124.921C272.399 123.385 273.295 121.401 273.295 118.969C273.295 116.985 272.687 115.353 271.471 114.073C270.255 112.793 268.719 111.801 266.863 111.097C265.071 110.329 262.575 109.497 259.375 108.601C255.023 107.321 251.471 106.073 248.719 104.857C246.031 103.577 243.695 101.689 241.711 99.1928C239.791 96.6328 238.831 93.2408 238.831 89.0168C238.831 85.0488 239.823 81.5928 241.807 78.6488C243.791 75.7048 246.575 73.4648 250.159 71.9288C253.743 70.3288 257.839 69.5288 262.447 69.5288C269.359 69.5288 274.959 71.2248 279.247 74.6168C283.599 77.9448 285.999 82.6168 286.447 88.6328H271.663C271.535 86.3288 270.543 84.4408 268.687 82.9688C266.895 81.4328 264.495 80.6648 261.487 80.6648C258.863 80.6648 256.751 81.3368 255.151 82.6808C253.615 84.0248 252.847 85.9768 252.847 88.5368C252.847 90.3288 253.423 91.8328 254.575 93.0488C255.791 94.2008 257.263 95.1608 258.991 95.9288C260.783 96.6328 263.279 97.4648 266.479 98.4248C270.831 99.7048 274.383 100.985 277.135 102.265C279.887 103.545 282.255 105.465 284.239 108.025C286.223 110.585 287.215 113.945 287.215 118.105C287.215 121.689 286.287 125.017 284.431 128.089C282.575 131.161 279.855 133.625 276.271 135.481C272.687 137.273 268.431 138.169 263.503 138.169ZM329.971 138.169C323.699 138.169 317.939 136.697 312.691 133.753C307.443 130.809 303.283 126.745 300.211 121.561C297.139 116.313 295.603 110.393 295.603 103.801C295.603 97.2728 297.139 91.4168 300.211 86.2328C303.283 80.9848 307.443 76.8888 312.691 73.9448C317.939 71.0008 323.699 69.5288 329.971 69.5288C336.307 69.5288 342.067 71.0008 347.251 73.9448C352.499 76.8888 356.627 80.9848 359.635 86.2328C362.707 91.4168 364.243 97.2728 364.243 103.801C364.243 110.393 362.707 116.313 359.635 121.561C356.627 126.745 352.499 130.809 347.251 133.753C342.003 136.697 336.243 138.169 329.971 138.169ZM329.971 126.169C334.003 126.169 337.555 125.273 340.627 123.481C343.699 121.625 346.099 119.001 347.827 115.609C349.555 112.217 350.419 108.281 350.419 103.801C350.419 99.3208 349.555 95.4168 347.827 92.0888C346.099 88.6968 343.699 86.1048 340.627 84.3128C337.555 82.5208 334.003 81.6248 329.971 81.6248C325.939 81.6248 322.355 82.5208 319.219 84.3128C316.147 86.1048 313.747 88.6968 312.019 92.0888C310.291 95.4168 309.427 99.3208 309.427 103.801C309.427 108.281 310.291 112.217 312.019 115.609C313.747 119.001 316.147 121.625 319.219 123.481C322.355 125.273 325.939 126.169 329.971 126.169ZM387.682 126.841H409.762V137.497H374.242V70.4888H387.682V126.841ZM459.392 124.729H432.704L428.288 137.497H414.176L438.272 70.3928H453.92L478.016 137.497H463.808L459.392 124.729ZM455.744 113.977L446.048 85.9448L436.352 113.977H455.744ZM521.583 137.497L506.799 111.385H500.463V137.497H487.023V70.4888H512.175C517.359 70.4888 521.775 71.4168 525.423 73.2728C529.071 75.0648 531.791 77.5288 533.583 80.6648C535.439 83.7368 536.367 87.1928 536.367 91.0328C536.367 95.4488 535.087 99.4488 532.527 103.033C529.967 106.553 526.159 108.985 521.103 110.329L537.135 137.497H521.583ZM500.463 101.305H511.695C515.343 101.305 518.063 100.441 519.855 98.7128C521.647 96.9208 522.543 94.4568 522.543 91.3208C522.543 88.2488 521.647 85.8808 519.855 84.2168C518.063 82.4888 515.343 81.6248 511.695 81.6248H500.463V101.305ZM601.803 70.4888L579.147 114.169V137.497H565.707V114.169L542.955 70.4888H558.123L572.523 101.113L586.827 70.4888H601.803Z" fill="white"/>
<path d="M114.566 67.4968C46.6392 100.403 81.0923 108.63 108.034 107.627M98.2372 97.5942C126.54 100.27 166.164 113.446 98.2372 144.747" stroke="black" stroke-width="150" stroke-linejoin="bevel"/>
<g filter="url(#filter0_i_3_12)">
<circle cx="105.368" cy="106.122" r="74.625" fill="url(#paint0_linear_3_12)"/>
</g>
<defs>
<filter id="filter0_i_3_12" x="30.7428" y="31.4968" width="149.25" height="152.25" filterUnits="userSpaceOnUse" color-interpolation-filters="sRGB">
<feFlood flood-opacity="0" result="BackgroundImageFix"/>
<feBlend mode="normal" in="SourceGraphic" in2="BackgroundImageFix" result="shape"/>
<feColorMatrix in="SourceAlpha" type="matrix" values="0 0 0 0 0 0 0 0 0 0 0 0 0 0 0 0 0 0 127 0" result="hardAlpha"/>
<feOffset dy="3"/>
<feGaussianBlur stdDeviation="18.75"/>
<feComposite in2="hardAlpha" operator="arithmetic" k2="-1" k3="1"/>
<feColorMatrix type="matrix" values="0 0 0 0 1 0 0 0 0 0.158654 0 0 0 0 0.158654 0 0 0 0.5 0"/>
<feBlend mode="normal" in2="shape" result="effect1_innerShadow_3_12"/>
</filter>
<linearGradient id="paint0_linear_3_12" x1="149.618" y1="163.122" x2="59.9928" y2="45.7468" gradientUnits="userSpaceOnUse">
<stop stop-color="#E94822"/>
<stop offset="1" stop-color="#F2910A"/>
</linearGradient>
</defs>
</svg>
